<?xml version="1.0" standalone="no"?>
<!DOCTYPE svg PUBLIC "-//W3C//DTD SVG 20010904//EN"
 "http://www.w3.org/TR/2001/REC-SVG-20010904/DTD/svg10.dtd">
<svg version="1.0" xmlns="http://www.w3.org/2000/svg"
 width="500.000000pt" height="500.000000pt" viewBox="0 0 500.000000 500.000000"
 preserveAspectRatio="xMidYMid meet">
<metadata>
Created by potrace 1.16, written by Peter Selinger 2001-2019
</metadata>
<g transform="translate(0.000000,500.000000) scale(0.100000,-0.100000)"
fill="#000000" stroke="none">
<path d="M1884 3776 c-23 -7 -51 -20 -63 -28 -20 -14 -20 -15 25 -48 31 -22
51 -30 59 -24 6 5 44 31 83 57 40 26 72 50 72 52 0 10 -138 3 -176 -9z"/>
<path d="M1320 3675 c0 -3 34 -39 75 -81 139 -140 249 -287 271 -362 8 -25 14
-84 14 -133 0 -67 3 -88 15 -92 8 -4 16 -3 18 1 3 4 8 64 12 133 5 97 11 134
26 158 24 40 92 89 135 97 19 3 34 11 34 18 -1 18 -48 66 -66 66 -25 0 -80
-37 -110 -73 -24 -30 -25 -30 -19 -7 5 19 49 117 73 162 4 8 -57 78 -68 78
-12 0 -40 -89 -40 -126 0 -67 -8 -68 -71 -9 -33 30 -90 72 -127 94 -65 39
-172 86 -172 76z"/>
<path d="M2142 2925 c2 -13 35 -26 123 -50 424 -116 780 -289 1066 -516 116
-92 298 -284 382 -400 53 -74 181 -307 210 -381 7 -17 36 17 119 137 67 96
168 286 168 316 0 22 -208 233 -310 315 -394 315 -884 507 -1455 568 -265 28
-307 30 -303 11z"/>
</g>
</svg>
